<?xml version="1.0" encoding="UTF-8" standalone="no"?>
<svg
   xmlns:dc="http://purl.org/dc/elements/1.1/"
   xmlns:cc="http://creativecommons.org/ns#"
   xmlns:rdf="http://www.w3.org/1999/02/22-rdf-syntax-ns#"
   xmlns:svg="http://www.w3.org/2000/svg"
   xmlns="http://www.w3.org/2000/svg"
   viewBox="0 0 666.66669 666.66669"
   height="666.66669"
   width="666.66669"
   xml:space="preserve"
   id="svg2"
   version="1.1"><metadata
     id="metadata8"><rdf:RDF><cc:Work
         rdf:about=""><dc:format>image/svg+xml</dc:format><dc:type
           rdf:resource="http://purl.org/dc/dcmitype/StillImage" /></cc:Work></rdf:RDF></metadata><defs
     id="defs6" /><g
     transform="matrix(1.3333333,0,0,-1.3333333,0,666.66667)"
     id="g10"><g
       transform="scale(0.1)"
       id="g12"><path
         id="path14"
         style="fill:#ffffff;fill-opacity:1;fill-rule:nonzero;stroke:none"
         d="M 0,0 H 5000 V 5000 H 0 V 0" /><g
         transform="scale(10)"
         id="g16"><text
           id="text20"
           style="font-variant:normal;font-weight:600;font-size:23.31389999px;font-family:Montserrat;-inkscape-font-specification:Montserrat-SemiBold;writing-mode:lr-tb;fill:#100f0d;fill-opacity:1;fill-rule:nonzero;stroke:none"
           transform="matrix(1,0,0,-1,115.38,99.591)"><tspan
             id="tspan18"
             y="0"
             x="0 22.125008 47.979515 72.132812 95.213409 119.71632 149.4409 174.36382 198.86581 223.32193 246.40305">SUPERMARKET</tspan></text>
</g><g
         transform="scale(10)"
         id="g22"><text
           id="text26"
           style="font-variant:normal;font-weight:bold;font-size:56.26699829px;font-family:Montserrat;-inkscape-font-specification:Montserrat-Bold;writing-mode:lr-tb;fill:#f25321;fill-opacity:1;fill-rule:nonzero;stroke:none"
           transform="matrix(1,0,0,-1,111.944,126.719)"><tspan
             id="tspan24"
             y="0"
             x="0 53.959492 113.32027 169.08008 222.98337">FRESH</tspan></text>
</g><path
         id="path28"
         style="fill:#f9f002;fill-opacity:1;fill-rule:nonzero;stroke:none"
         d="m 3410.3,1742.12 v 1658.2 c 0,211.24 -171.24,382.48 -382.48,382.48 H 1872.88 c -211.24,0 -382.48,-171.24 -382.48,-382.48 v -1658.2 h 1919.9" /><path
         id="path30"
         style="fill:#a6d71c;fill-opacity:1;fill-rule:nonzero;stroke:none"
         d="m 2009.44,2648.78 c 20,-90 80,-209.99 150,-229.99 402.07,-137.08 829.2,-132.2 1250.86,-137.97 v 1119.5 c 0,211.24 -171.24,382.48 -382.48,382.48 H 1872.88 c -114.09,0 -216.44,-50.01 -286.51,-129.23 331.11,-201.51 319.61,-647.36 423.07,-1004.79" /><path
         id="path32"
         style="fill:#323131;fill-opacity:1;fill-rule:nonzero;stroke:none"
         d="m 3319.01,2225.17 c -7.68,0 -15.41,0.31 -23.18,0.94 l -985.04,80.41 c -151.09,12.34 -278.65,119.09 -317.42,265.63 l -192.04,725.88 c -34.05,129.07 -69.27,262.52 -219.74,302.95 l -428.33,88.06 c -32.45,6.67 -53.36,38.39 -46.68,70.85 6.67,32.46 38.44,53.36 70.85,46.69 l 433.19,-89.15 c 219.4,-57.74 269.88,-249.08 306.74,-388.79 l 2.46,-9.34 189.56,-716.46 c 25.79,-97.49 110.65,-168.5 211.17,-176.72 l 985.05,-80.41 c 78.32,-6.4 150.29,43.94 171.18,119.66 l 181.47,657.81 -1257.84,103.33 c -27.21,2.21 -52.88,-8.42 -70.5,-29.23 -17.62,-20.82 -23.89,-47.91 -17.2,-74.35 l 56.14,-222.03 c 18.56,-73.38 81.62,-127.78 156.94,-135.37 l 593.01,-59.76 c 30.28,-3.05 57.94,14.98 67.44,43.81 6.14,18.68 3.49,38.83 -7.29,55.28 -10.79,16.45 -28.21,26.93 -47.8,28.74 l -498,46.06 c -32.99,3.05 -57.26,32.27 -54.21,65.27 3.05,32.99 32.11,57.28 65.27,54.22 l 498,-46.06 c 56.19,-5.2 106.16,-35.25 137.1,-82.45 30.93,-47.19 38.55,-105.01 20.9,-158.6 -27.25,-82.73 -106.9,-134.41 -193.44,-125.66 l -593.01,59.76 c -125.37,12.63 -230.36,103.19 -261.25,225.34 l -56.14,222.03 c -16.31,64.47 -1.01,130.55 41.96,181.3 42.97,50.76 105.62,76.71 171.9,71.3 l 1402.22,-115.19 -219.99,-797.46 c -34.13,-123.69 -146.97,-208.28 -273.45,-208.29" /><path
         id="path34"
         style="fill:#323131;fill-opacity:1;fill-rule:nonzero;stroke:none"
         d="m 2451.11,2077.36 c 0,-90.21 -73.13,-163.34 -163.34,-163.34 -90.2,0 -163.33,73.13 -163.33,163.34 0,90.21 73.13,163.33 163.33,163.33 90.21,0 163.34,-73.12 163.34,-163.33" /><path
         id="path36"
         style="fill:#323131;fill-opacity:1;fill-rule:nonzero;stroke:none"
         d="m 3263.12,2027.71 c 0,-54.51 -44.18,-98.69 -98.68,-98.69 -54.5,0 -98.68,44.18 -98.68,98.69 0,54.5 44.18,98.68 98.68,98.68 54.5,0 98.68,-44.18 98.68,-98.68" /><path
         id="path38"
         style="fill:#f25321;fill-opacity:1;fill-rule:nonzero;stroke:none"
         d="m 2279.44,3528.78 c 0,-79.16 -64.17,-143.33 -143.33,-143.33 -79.16,0 -143.34,64.17 -143.34,143.33 0,79.16 64.18,143.34 143.34,143.34 79.16,0 143.33,-64.18 143.33,-143.34" /><path
         id="path40"
         style="fill:#f9f002;fill-opacity:1;fill-rule:nonzero;stroke:none"
         d="m 2545.27,3872.12 c 0,-107.01 -86.74,-193.75 -193.75,-193.75 -107,0 -193.75,86.74 -193.75,193.75 0,107 86.75,193.75 193.75,193.75 107.01,0 193.75,-86.75 193.75,-193.75" /><path
         id="path42"
         style="fill:#f9f002;fill-opacity:1;fill-rule:nonzero;stroke:none"
         d="m 2498.33,3576.56 c 0,-37.43 -30.34,-67.78 -67.78,-67.78 -37.43,0 -67.78,30.35 -67.78,67.78 0,37.43 30.35,67.78 67.78,67.78 37.44,0 67.78,-30.35 67.78,-67.78" /><path
         id="path44"
         style="fill:#f25321;fill-opacity:1;fill-rule:nonzero;stroke:none"
         d="m 2918.89,3773.78 c 0,-86.52 -70.15,-156.66 -156.67,-156.66 -86.53,0 -156.66,70.14 -156.66,156.66 0,86.53 70.13,156.67 156.66,156.67 86.52,0 156.67,-70.14 156.67,-156.67" /><path
         id="path46"
         style="fill:#f25321;fill-opacity:1;fill-rule:nonzero;stroke:none"
         d="m 3069.44,3479.62 c 0,-70.42 -57.09,-127.5 -127.5,-127.5 -70.42,0 -127.5,57.08 -127.5,127.5 0,70.41 57.08,127.5 127.5,127.5 70.41,0 127.5,-57.09 127.5,-127.5" /><path
         id="path48"
         style="fill:#f9f002;fill-opacity:1;fill-rule:nonzero;stroke:none"
         d="m 3610.69,3423.78 c 0,-70.42 -57.09,-127.5 -127.5,-127.5 -70.42,0 -127.5,57.08 -127.5,127.5 0,70.41 57.08,127.5 127.5,127.5 70.41,0 127.5,-57.09 127.5,-127.5" /><path
         id="path50"
         style="fill:#f9f002;fill-opacity:1;fill-rule:nonzero;stroke:none"
         d="m 2724.44,3457.12 c 0,-46.95 -38.05,-85 -85,-85 -46.94,0 -85,38.05 -85,85 0,46.94 38.06,85 85,85 46.95,0 85,-38.06 85,-85" /><path
         id="path52"
         style="fill:#f9f002;fill-opacity:1;fill-rule:nonzero;stroke:none"
         d="m 3239.44,3765.45 c 0,-58.91 -47.76,-106.67 -106.67,-106.67 -58.9,0 -106.67,47.76 -106.67,106.67 0,58.91 47.77,106.67 106.67,106.67 58.91,0 106.67,-47.76 106.67,-106.67" /><path
         id="path54"
         style="fill:#f9f002;fill-opacity:1;fill-rule:nonzero;stroke:none"
         d="m 3284.44,3423.78 c 0,-46.94 -38.05,-85 -85,-85 -46.94,0 -85,38.06 -85,85 0,46.94 38.06,85 85,85 46.95,0 85,-38.06 85,-85" /><path
         id="path56"
         style="fill:#f25321;fill-opacity:1;fill-rule:nonzero;stroke:none"
         d="m 3382.77,3617.12 c 0,-39.58 -32.09,-71.67 -71.67,-71.67 -39.58,0 -71.66,32.09 -71.66,71.67 0,39.58 32.08,71.66 71.66,71.66 39.58,0 71.67,-32.08 71.67,-71.66" /></g></g></svg>