<?xml version="1.0" encoding="UTF-8"?>
<svg xmlns="http://www.w3.org/2000/svg" xmlns:xlink="http://www.w3.org/1999/xlink" width="32pt" height="32pt" viewBox="0 0 32 32" version="1.1">
<g id="surface1">
<rect x="0" y="0" width="32" height="32" style="fill:rgb(100%,100%,100%);fill-opacity:1;stroke:none;"/>
<path style=" stroke:none;fill-rule:evenodd;fill:rgb(78.039216%,21.568627%,29.803922%);fill-opacity:1;" d="M 20.863281 18.019531 L 30.589844 18.019531 L 30.589844 20.460938 L 20.863281 20.460938 Z M 20.863281 18.019531 "/>
<path style=" stroke:none;fill-rule:evenodd;fill:rgb(0%,0%,0%);fill-opacity:1;" d="M 7.984375 17.453125 L 9.101562 17.453125 L 9.101562 15.015625 C 9.300781 14.632812 9.484375 14.449219 9.714844 14.449219 C 9.992188 14.449219 10.128906 14.738281 10.128906 15.199219 L 10.128906 17.453125 L 11.25 17.453125 L 11.25 14.96875 C 11.433594 14.617188 11.648438 14.449219 11.894531 14.449219 C 12.230469 14.449219 12.277344 14.785156 12.277344 15.382812 L 12.277344 17.453125 L 13.398438 17.453125 L 13.398438 14.921875 C 13.398438 13.957031 12.769531 13.574219 12.246094 13.574219 C 11.753906 13.574219 11.402344 13.820312 11.15625 14.339844 C 10.988281 13.851562 10.636719 13.574219 10.160156 13.574219 C 9.746094 13.574219 9.410156 13.773438 9.117188 14.234375 L 9.101562 14.234375 L 9.101562 13.652344 L 7.984375 13.652344 Z M 17.398438 16.472656 C 17.261719 16.578125 17.152344 16.625 17.078125 16.625 C 16.984375 16.625 16.96875 16.578125 16.96875 16.210938 L 16.96875 14.664062 C 16.96875 13.804688 16.355469 13.574219 15.683594 13.574219 C 15.097656 13.574219 14.683594 13.710938 14.195312 14.09375 L 14.195312 14.953125 C 14.667969 14.539062 15.023438 14.371094 15.40625 14.371094 C 15.726562 14.371094 15.867188 14.523438 15.867188 14.894531 L 15.867188 15.03125 C 14.746094 15.414062 13.964844 15.78125 13.964844 16.5625 C 13.964844 17.101562 14.363281 17.515625 14.867188 17.515625 C 15.253906 17.515625 15.527344 17.378906 15.910156 16.980469 C 15.957031 17.347656 16.140625 17.515625 16.480469 17.515625 C 16.738281 17.515625 17 17.40625 17.398438 17.148438 Z M 15.867188 16.472656 C 15.621094 16.671875 15.527344 16.71875 15.34375 16.71875 C 15.113281 16.71875 14.960938 16.5625 14.960938 16.320312 C 14.960938 15.980469 15.269531 15.78125 15.867188 15.550781 Z M 17.84375 17.453125 L 18.964844 17.453125 L 18.964844 16.855469 C 18.964844 15.8125 19.222656 14.691406 19.808594 14.691406 C 19.945312 14.691406 20.097656 14.753906 20.265625 14.878906 L 20.511719 13.820312 C 20.28125 13.679688 20.066406 13.605469 19.867188 13.605469 C 19.4375 13.605469 19.132812 14.078125 18.886719 15.078125 L 18.871094 15.078125 L 18.871094 13.648438 L 17.84375 13.648438 Z M 20.863281 17.453125 L 21.96875 17.453125 L 21.96875 15.550781 L 21.984375 15.550781 L 23.195312 17.453125 L 24.40625 17.453125 L 23.164062 15.507812 L 24.222656 13.652344 L 23.058594 13.652344 L 21.984375 15.550781 L 21.96875 15.550781 L 21.96875 11.824219 L 20.863281 11.824219 Z M 27.398438 16.425781 C 27.046875 16.640625 26.785156 16.734375 26.476562 16.734375 C 25.957031 16.734375 25.632812 16.378906 25.589844 15.71875 L 27.503906 15.71875 C 27.519531 14.25 26.863281 13.574219 26.035156 13.574219 C 25.128906 13.574219 24.453125 14.433594 24.453125 15.613281 C 24.453125 16.378906 24.777344 17.515625 26.109375 17.515625 C 26.570312 17.515625 26.984375 17.40625 27.398438 17.148438 Z M 25.589844 15.183594 C 25.589844 14.585938 25.742188 14.25 26.035156 14.25 C 26.324219 14.25 26.464844 14.554688 26.476562 15.183594 Z M 30.574219 16.335938 C 30.25 16.535156 30.082031 16.609375 29.898438 16.609375 C 29.605469 16.609375 29.5 16.363281 29.5 16.011719 L 29.5 14.386719 L 30.511719 14.386719 L 30.511719 13.648438 L 29.5 13.648438 L 29.5 12.46875 L 29.300781 12.46875 L 27.890625 14.25 L 27.890625 14.386719 L 28.394531 14.386719 L 28.394531 16.226562 C 28.394531 17.191406 29.023438 17.515625 29.574219 17.515625 C 29.882812 17.515625 30.144531 17.4375 30.574219 17.191406 Z M 30.574219 16.335938 "/>
<path style=" stroke:none;fill-rule:evenodd;fill:rgb(78.039216%,21.568627%,29.803922%);fill-opacity:1;" d="M 2.617188 14.171875 L 2.617188 15 L 3.996094 15 L 3.996094 16.472656 L 4.777344 16.472656 L 4.777344 15 L 6.144531 15 L 6.144531 14.171875 L 4.777344 14.171875 L 4.777344 12.699219 L 3.996094 12.699219 L 3.996094 14.171875 Z M 1.804688 17.269531 C 1.003906 16.410156 1.464844 14.523438 2.832031 13.050781 C 4.210938 11.59375 5.972656 11.105469 6.773438 11.964844 C 7.585938 12.820312 7.125 14.707031 5.742188 16.164062 C 4.378906 17.636719 2.617188 18.128906 1.804688 17.269531 Z M 1.804688 17.269531 "/>
<path style=" stroke:none;fill-rule:evenodd;fill:rgb(100%,100%,100%);fill-opacity:1;" d="M 21.878906 20.183594 L 22.078125 20.183594 L 22.152344 19.675781 C 22.183594 19.707031 22.230469 19.738281 22.277344 19.753906 C 22.335938 19.769531 22.382812 19.785156 22.429688 19.785156 C 22.582031 19.785156 22.691406 19.738281 22.765625 19.660156 C 22.859375 19.570312 22.921875 19.449219 22.9375 19.292969 C 22.964844 19.125 22.9375 19.019531 22.875 18.941406 C 22.796875 18.847656 22.707031 18.820312 22.582031 18.820312 C 22.507812 18.820312 22.445312 18.835938 22.398438 18.847656 C 22.335938 18.878906 22.292969 18.910156 22.246094 18.925781 L 22.261719 18.835938 L 22.0625 18.835938 Z M 22.230469 19.078125 C 22.277344 19.035156 22.324219 19.003906 22.367188 18.972656 C 22.429688 18.957031 22.476562 18.941406 22.523438 18.941406 C 22.597656 18.941406 22.660156 18.972656 22.707031 19.035156 C 22.734375 19.09375 22.75 19.1875 22.734375 19.292969 C 22.722656 19.433594 22.675781 19.507812 22.628906 19.570312 C 22.566406 19.632812 22.492188 19.648438 22.429688 19.648438 C 22.367188 19.648438 22.324219 19.648438 22.277344 19.617188 C 22.234375 19.59375 22.195312 19.5625 22.167969 19.523438 Z M 24.851562 19.753906 L 25.019531 18.496094 L 24.820312 18.496094 L 24.652344 19.753906 Z M 26.785156 18.832031 L 26.707031 19.460938 C 26.691406 19.570312 26.707031 19.644531 26.738281 19.691406 C 26.785156 19.753906 26.863281 19.785156 26.953125 19.785156 C 27.03125 19.785156 27.105469 19.753906 27.183594 19.722656 C 27.230469 19.707031 27.292969 19.660156 27.335938 19.632812 L 27.320312 19.753906 L 27.519531 19.753906 L 27.644531 18.832031 L 27.445312 18.832031 L 27.351562 19.492188 C 27.308594 19.535156 27.257812 19.566406 27.199219 19.585938 C 27.152344 19.613281 27.101562 19.628906 27.046875 19.632812 C 26.984375 19.632812 26.9375 19.617188 26.921875 19.585938 C 26.890625 19.539062 26.890625 19.476562 26.90625 19.402344 L 26.984375 18.835938 L 26.785156 18.835938 Z M 29.945312 19.003906 C 29.945312 18.957031 29.914062 18.910156 29.882812 18.878906 C 29.835938 18.835938 29.777344 18.820312 29.683594 18.820312 C 29.589844 18.820312 29.515625 18.835938 29.453125 18.878906 C 29.390625 18.910156 29.347656 18.988281 29.347656 19.0625 C 29.332031 19.109375 29.347656 19.171875 29.378906 19.21875 C 29.40625 19.261719 29.453125 19.292969 29.53125 19.324219 C 29.605469 19.355469 29.652344 19.386719 29.683594 19.417969 C 29.699219 19.449219 29.714844 19.476562 29.714844 19.507812 C 29.703125 19.550781 29.6875 19.59375 29.667969 19.632812 C 29.636719 19.648438 29.59375 19.660156 29.5625 19.660156 C 29.484375 19.660156 29.453125 19.632812 29.4375 19.570312 L 29.253906 19.570312 C 29.269531 19.648438 29.300781 19.691406 29.347656 19.722656 C 29.394531 19.769531 29.46875 19.769531 29.546875 19.769531 C 29.652344 19.769531 29.730469 19.738281 29.792969 19.691406 C 29.851562 19.648438 29.898438 19.570312 29.914062 19.492188 C 29.914062 19.417969 29.898438 19.371094 29.867188 19.324219 C 29.835938 19.277344 29.792969 19.246094 29.699219 19.203125 C 29.605469 19.171875 29.578125 19.15625 29.5625 19.125 C 29.53125 19.109375 29.53125 19.0625 29.53125 19.035156 C 29.53125 19 29.546875 18.972656 29.578125 18.957031 C 29.59375 18.941406 29.636719 18.925781 29.667969 18.925781 C 29.730469 18.925781 29.761719 18.972656 29.777344 19.019531 Z M 29.945312 19.003906 "/>
</g>
</svg>
